# xmcd
#
# Track frame offsets:
#	150
#	1962
#	69882
#	81114
#	126318
#	146154
#	159531
#	177053
#	195561
#	220703
#	241006
#	249493
#
# Disc length: 3661 seconds
#
# Revision: 1
# Processed by: cddbd v1.5.2PL0 Copyright (c) Steve Scherf et al.
# Submitted via: audiograbber 1.83.01
#
DISCID=980e4b0c
DTITLE=Grateful Dead - 70-02-08 Fillmore West, San Francisco CA
DYEAR=1900
DGENRE=
TTITLE0=Introduction
TTITLE1=Smokestack Lightning
TTITLE2=Tuning and Stage Banter
TTITLE3=Morning Dew
TTITLE4=Dire Wolf
TTITLE5=Stage Banter
TTITLE6=Me and My Uncle
TTITLE7=Sitting On Top Of The World
TTITLE8=China Cat Sunflower
TTITLE9=I Know You Rider
TTITLE10=Tuning
TTITLE11=It Hurts Me Too
EXTD=
EXTT0=
EXTT1=
EXTT2=
EXTT3=
EXTT4=
EXTT5=
EXTT6=
EXTT7=
EXTT8=
EXTT9=
EXTT10=
EXTT11=
PLAYORDER=
